<svg xmlns="http://www.w3.org/2000/svg" version="1.1" xmlns:xlink="http://www.w3.org/1999/xlink" xmlns:svgjs="http://svgjs.com/svgjs" width="407.807" height="415.445"><svg xmlns="http://www.w3.org/2000/svg" viewBox="0 0 407.807 415.445"><defs><style>.cls-1{isolation:isolate;}.cls-2{fill:#e0daa6;}.cls-3{fill:#535760;}.cls-4{fill:#fc6;}.cls-5{fill:#238302;}.cls-6{fill:#36393f;}.cls-7{fill:#ff6000;}.cls-8{fill:#ba4600;}.cls-9{fill:#fff;}.cls-10{fill:#ec1313;}.cls-11{fill:#f280a1;}</style></defs><g id="SvgjsG1036" data-name="Rectangle 3" class="cls-1"><g id="SvgjsG1035" data-name="Rectangle 3"><path class="cls-2" d="M94.924,339.994a16.82,16.82,0,0,0-4.718-7.51l-5.99-9.324a23.529,23.529,0,0,0-5.553-6.385c-4.174-3.307-13.85-5.958-27.873-4.278-3.551.425-13.184,2.745-20.831,2.688a58.654,58.654,0,0,1-14.3-1.885,35.915,35.915,0,0,0,23.372,6.347,45.708,45.708,0,0,0-25.4,23.188c1.611-1.572,3.233-3.063,4.935-4.536,1.468-1.269,2.933-2.473,4.464-3.665a19.258,19.258,0,0,0-2.5,8.781,18.924,18.924,0,0,0,.618,5.515c-.656,5.071-3.209,9.787-7.584,12.338a14.367,14.367,0,0,1-5.733,1.851,13.37,13.37,0,0,0,5.044.253,14.212,14.212,0,0,0,8.855-5.117,23.414,23.414,0,0,1-1.088,6.168,23.413,23.413,0,0,1-2.1,4.717l2.794-1.415A20.074,20.074,0,0,1,.028,382.1a30.989,30.989,0,0,0,34.333,12.731,50.166,50.166,0,0,0,10.779-1.6,50.87,50.87,0,0,0,17.745-8.638,7.139,7.139,0,0,0,3.159,9.143c-.011-.741.013-1.477.072-2.213.676-8.369,5.886-15.877,13.752-22.063a11.045,11.045,0,0,0,5.916,6.132,10.378,10.378,0,0,0,4.319.761,13.535,13.535,0,0,1-3.376-7.909c-.269-5.331,5.8-13.318,6.421-14.769C95.739,347.6,95.559,342.182,94.924,339.994Z" transform="translate(-0.028 0)"></path></g></g><g id="SvgjsG1034" data-name="Rectangle 4" class="cls-1"><g id="SvgjsG1033" data-name="Rectangle 4"><path class="cls-3" d="M101.517,340.238,79.164,308.321a8.863,8.863,0,0,0-12.341-2.176l-6.444,4.511L92.9,357.087l6.444-4.511A8.857,8.857,0,0,0,101.517,340.238Z" transform="translate(-0.028 0)"></path></g></g><g id="SvgjsG1032" data-name="Rectangle 2" class="cls-1"><g id="SvgjsG1031" data-name="Rectangle 2"><path class="cls-4" d="M37.791,115.477a10.41,10.41,0,1,0-11.944,17.054L310.889,332.077l11.945-17.055Z" transform="translate(-0.028 0)"></path></g></g><g id="SvgjsG1030" data-name="Ellipse 2" class="cls-1"><g id="SvgjsG1029" data-name="Ellipse 2"><path class="cls-5" d="M251.405,52.6l-2.126,12.639a171.72,171.72,0,0,1-88.914,331.729v13.161a184.951,184.951,0,0,0,44.078,5.312c101.886,0,184.48-82.577,184.48-184.44C388.923,145.368,330.544,73.371,251.405,52.6Z" transform="translate(-0.028 0)"></path></g></g><g id="SvgjsG1028" data-name="Rectangle 5" class="cls-1"><g id="SvgjsG1027" data-name="Rectangle 5"><rect class="cls-3" x="303.415" y="315.796" width="24.361" height="13.732" transform="translate(-129.767 396.066) rotate(-54.994)"></rect></g></g><g id="SvgjsG1026" data-name="Rectangle 2" class="cls-1"><g id="SvgjsG1025" data-name="Rectangle 2"><path class="cls-4" d="M384.572,118.031a10.413,10.413,0,0,0-14.5-2.556L85.028,315.021l11.944,17.054L382.015,132.53A10.408,10.408,0,0,0,384.572,118.031Z" transform="translate(-0.028 0)"></path></g></g><g id="SvgjsG1024" data-name="Group 1"><g id="SvgjsG1023" data-name="Rectangle 1"><path class="cls-6" d="M88.769,118.061q17.688,113.046,35.377,226.092a165.627,165.627,0,0,0,155.654,0l35.376-226.092Z" transform="translate(-0.028 0)"></path></g><g id="SvgjsG1022" data-name="Ellipse 1"><ellipse class="cls-3" cx="201.941" cy="120.874" rx="124.137" ry="17.879"></ellipse></g><g id="SvgjsG1021" data-name="Ellipse 1 copy"><ellipse class="cls-6" cx="201.95" cy="120.874" rx="100.454" ry="12.591"></ellipse></g></g><g id="SvgjsG1020" data-name="Rectangle 6" class="cls-1"><g id="SvgjsG1019" data-name="Rectangle 6"><path class="cls-6" d="M94.488,120.469c-.034-1.1-.056-2.21-.056-3.322a107.8,107.8,0,0,1,215.592,0c0,1.112-.022,2.218-.056,3.322h9.383c.031-1.1.05-2.211.05-3.322a117.173,117.173,0,0,0-234.346,0c0,1.111.019,2.218.05,3.322Z" transform="translate(-0.028 0)"></path></g></g><g id="SvgjsG1018" data-name="Rectangle 5" class="cls-1"><g id="SvgjsG1017" data-name="Rectangle 5"><rect class="cls-3" x="85.4" y="310.48" width="13.732" height="24.361" transform="translate(-168.39 111.246) rotate(-34.994)"></rect></g></g><g id="SvgjsG1016" data-name="Ellipse 2 copy" class="cls-1"><g id="SvgjsG1015" data-name="Ellipse 2 copy"><path class="cls-5" d="M237.446,399.511A171.716,171.716,0,0,1,158.067,65.66l-2.126-12.64C77.587,74.313,19.963,145.925,19.963,231.005c0,101.863,82.594,184.44,184.48,184.44a185.656,185.656,0,0,0,33-2.947Z" transform="translate(-0.028 0)"></path></g></g><g id="SvgjsG1014" data-name="Rectangle 3" class="cls-1"><g id="SvgjsG1013" data-name="Rectangle 3"><path class="cls-2" d="M394.516,378.721a20.083,20.083,0,0,1-7.983-11l2.794,1.416a23.4,23.4,0,0,1-3.192-10.886,14.207,14.207,0,0,0,8.854,5.117,13.354,13.354,0,0,0,5.045-.253,14.361,14.361,0,0,1-5.734-1.851c-4.375-2.551-6.927-7.267-7.583-12.338a18.993,18.993,0,0,0,.618-5.515,19.271,19.271,0,0,0-2.5-8.781c1.53,1.192,3,2.4,4.463,3.665,1.7,1.473,3.324,2.964,4.935,4.537a45.7,45.7,0,0,0-25.4-23.189A35.92,35.92,0,0,0,392.2,313.3a58.66,58.66,0,0,1-14.3,1.885c-7.647.057-17.28-2.263-20.831-2.688-14.023-1.679-23.7.972-27.873,4.278a23.5,23.5,0,0,0-5.553,6.385l-5.99,9.324a16.837,16.837,0,0,0-4.719,7.51c-.634,2.188-.814,7.605,1.777,13.679.618,1.451,6.69,9.438,6.421,14.769a13.535,13.535,0,0,1-3.376,7.909,10.346,10.346,0,0,0,4.319-.761,11.046,11.046,0,0,0,5.916-6.131c7.866,6.186,13.076,13.694,13.752,22.062.059.736.083,1.472.072,2.213a7.139,7.139,0,0,0,3.159-9.143,50.861,50.861,0,0,0,17.745,8.638,50.157,50.157,0,0,0,10.778,1.6,30.987,30.987,0,0,0,34.334-12.73A20.1,20.1,0,0,1,394.516,378.721Z" transform="translate(-0.028 0)"></path></g></g><g id="SvgjsG1012" data-name="Triangle 1" class="cls-1"><g id="SvgjsG1011" data-name="Triangle 1"><path class="cls-7" d="M273.449,54.475,253.03,49.983,214.416,14.72,198.064,89.007l49.555-15.7L268.3,77.862a38.884,38.884,0,0,0,5.148-23.387Z" transform="translate(-0.028 0)"></path></g></g><g id="SvgjsG1010" data-name="Rectangle 4" class="cls-1"><g id="SvgjsG1009" data-name="Rectangle 4"><path class="cls-3" d="M341.039,306.146a8.863,8.863,0,0,0-12.341,2.176l-22.353,31.917a8.858,8.858,0,0,0,2.175,12.338l6.444,4.511,32.519-46.431Z" transform="translate(-0.028 0)"></path></g></g><g id="SvgjsG1008" data-name="Ellipse 3" class="cls-1"><g id="SvgjsG1007" data-name="Ellipse 3"><ellipse class="cls-8" cx="206.255" cy="51.724" rx="37.871" ry="8.613" transform="translate(115.838 244.197) rotate(-78.922)"></ellipse></g></g><g id="SvgjsG1006" data-name="Ellipse 4" class="cls-1"><g id="SvgjsG1005" data-name="Ellipse 4"><path class="cls-9" d="M185.714,59.076l-1.836-9.463a2.215,2.215,0,0,0-2.6-1.753L171.275,49.8a10.155,10.155,0,0,0-14.2,2.754l-4.826.936a2.215,2.215,0,0,0-1.753,2.6l1.836,9.464a2.214,2.214,0,0,0,2.6,1.752l4.652-.9a10.132,10.132,0,0,0,14.553-2.822l9.833-1.907A2.214,2.214,0,0,0,185.714,59.076Z" transform="translate(-0.028 0)"></path></g></g><g id="SvgjsG1004" data-name="Rectangle 7" class="cls-1"><g id="SvgjsG1003" data-name="Rectangle 7"><path class="cls-10" d="M169.3,46.371a2.336,2.336,0,0,0-2.922,1.541L160.622,66.5a2.336,2.336,0,0,0,4.463,1.381l5.754-18.59A2.335,2.335,0,0,0,169.3,46.371Z" transform="translate(-0.028 0)"></path></g></g><g id="SvgjsG1002"><g id="SvgjsG1001"><path id="SvgjsPath1000" class="cls-11" d="M197.748,280.629a103.161,103.161,0,0,0-11.795-10.32c-12.924-9.76-14.683-11.172-19.93-16-9.673-8.907-13.781-17.856-13.767-29.99.007-5.924.41-8.206,2.069-11.7a27.215,27.215,0,0,1,12.26-13.018c3.754-1.907,5.6-2.754,11.874-2.788,6.558-.037,7.938.728,11.8,2.847,4.695,2.579,9.527,8.092,10.526,12.008l.617,2.418,1.522-3.331c8.6-18.822,36.049-18.541,45.6.468,3.03,6.031,3.363,18.907.676,26.16-3.506,9.461-10.09,16.674-25.31,27.727-9.981,7.249-21.278,18.217-22.065,19.758C200.911,286.655,201.78,285.147,197.748,280.629Z" transform="translate(-0.028 0)"></path></g></g></svg><style>@media (prefers-color-scheme: light) { :root { filter: none; } }
</style></svg>